<svg width="357" height="164" viewBox="0 0 357 164" fill="none" xmlns="http://www.w3.org/2000/svg">
<path d="M0.00266858 2.53508L58.2086 87.2728L69.659 53.2408L0.00266858 2.53508Z" fill="#6D3CC8"/>
<path d="M58.2121 87.2735L55.7328 53.7447L0.00622553 2.53584L58.2121 87.2735Z" fill="#6D3CC8"/>
<path d="M55.7273 53.7443L16.6652 75.5918L0.00077797 2.53544L55.7273 53.7443Z" fill="#EBD1FF"/>
<path d="M0.00201234 2.53648L101.453 45.8149L69.6583 53.2422L0.00201234 2.53648Z" fill="#EBD1FF"/>
<path d="M89.2144 77.6778C90.9417 80.0239 92.9494 82.4301 95.2056 84.8035" stroke="#6D3CC8" stroke-width="1.5" stroke-miterlimit="10" stroke-linecap="round"/>
<path d="M109.196 96.8379C126.921 109.528 151.528 119.096 177.074 116.461C214.741 112.561 238.129 73.385 223.577 43.5424C209.057 13.6996 164.01 16.2254 169.958 56.4635C175.907 96.7017 232.865 102.718 255.232 103.52C281.457 104.449 329.698 104.787 349.166 143.749" stroke="#6D3CC8" stroke-width="1.5" stroke-miterlimit="10" stroke-linecap="round" stroke-dasharray="5.95 5.95"/>
<path d="M352.776 152.288C353.76 155.105 354.59 158.109 355.297 161.27" stroke="#6D3CC8" stroke-width="1.5" stroke-miterlimit="10" stroke-linecap="round"/>
</svg>
