<svg width="137" height="25" viewBox="0 0 137 25" fill="none" xmlns="http://www.w3.org/2000/svg">
<g clip-path="url(#clip0)">
<g opacity="0.95">
<path opacity="0.95" d="M8.55627 24.1302V23.9434C7.84636 22.8972 7.47273 21.1784 7.47273 19.2729V11.2024C7.47273 9.37157 8.85518 8.28802 10.4245 8.28802C12.1432 8.28802 13.2267 9.52102 13.2267 11.2024V19.2729C13.2267 21.1784 12.8531 22.8972 12.1432 23.9434V24.1302H20.3632V23.9434C19.6533 22.8972 19.2796 21.1784 19.2796 19.2729V11.0529C19.2796 7.42866 17.0005 4.92529 13.4509 4.92529C10.5739 4.92529 8.59364 6.56929 7.65955 8.5122H7.47273V4.92529H7.28591L0 7.24184V7.42866C0.896727 8.36275 1.41982 9.55838 1.41982 11.9497V19.2729C1.41982 21.1784 1.04618 22.8972 0.336273 23.9434V24.1302H8.55627Z" fill="#2D0050"/>
<path opacity="0.95" d="M30.5923 24.6533C33.5067 24.6533 35.4496 23.0093 36.3837 21.0664H36.5705V24.6533H36.7573L44.0432 23.2708V23.084C43.1465 22.2246 42.6234 20.9916 42.6234 18.6004V4.92529H42.4366L35.1507 7.24184V7.42866C36.0474 8.36275 36.5705 9.55838 36.5705 11.9497V18.3762C36.5705 20.207 35.188 21.2905 33.5814 21.2905C31.9 21.2905 30.8165 20.0575 30.8165 18.3762V4.92529H30.6297L23.3438 7.24184V7.42866C24.2405 8.36275 24.7636 9.55838 24.7636 11.9497V18.5256C24.7636 22.1499 27.0428 24.6533 30.5923 24.6533Z" fill="#2D0050"/>
<path opacity="0.95" d="M55.6226 23.9434V24.1302H47.5521V23.9434C48.262 22.8972 48.6356 21.1784 48.6356 19.2729V11.9497C48.6356 9.55838 48.1125 8.36275 47.2158 7.42866V7.24184L54.5017 4.92529H54.6885V8.5122H54.8754C55.8468 6.4572 57.715 4.92529 60.4799 4.92529C62.9833 4.92529 65.0009 6.34511 65.7482 8.62429H65.935C66.8317 6.60666 68.6999 4.92529 71.4648 4.92529C74.8649 4.92529 77.1067 7.39129 77.1067 10.9408V19.2729C77.1067 21.1784 77.4804 22.8972 78.1903 23.9434V24.1302H70.1197V23.9434C70.8296 22.8972 71.0538 21.1784 71.0538 19.2729V11.2397C71.0538 9.52102 70.045 8.43747 68.5505 8.43747C67.0185 8.43747 65.8976 9.52102 65.8976 11.3892V19.2729C65.8976 21.1784 66.1218 22.8972 66.8317 23.9434V24.1302H58.9106V23.9434C59.6579 22.8972 59.8447 21.1784 59.8447 19.2729V11.2397C59.8447 9.52102 58.8733 8.43747 57.3787 8.43747C55.8468 8.43747 54.6885 9.52102 54.6885 11.3892V19.2729C54.6885 21.1784 54.9501 22.8972 55.6226 23.9434Z" fill="#2D0050"/>
<path opacity="0.95" fill-rule="evenodd" clip-rule="evenodd" d="M93.2824 20.3191C95.5242 20.3191 97.3176 19.2729 98.2517 17.5915H98.6254C97.7286 21.8884 94.478 24.6533 90.1065 24.6533C85.0997 24.6533 81.0645 21.2905 81.0645 15.1629C81.0645 8.99793 85.3613 4.92529 90.5922 4.92529C95.5242 4.92529 98.4012 8.28802 98.4012 12.1365H85.8844C86.3327 17.4794 89.546 20.3191 93.2824 20.3191ZM92.5725 11.2397C92.3483 8.17593 91.1153 5.97147 89.0229 5.97147C87.0053 5.97147 85.847 7.76493 85.847 10.9035V11.2397H92.5725Z" fill="#2D0050"/>
<path opacity="0.95" d="M109.846 24.1302V23.9434C109.136 22.8972 108.763 21.1784 108.763 19.2729V14.6025C108.763 11.3518 110.071 10.3057 113.172 10.3057H115.563V4.92529C111.528 4.92529 109.697 7.16711 108.95 10.4925H108.763V4.92529H108.576L101.29 7.24184V7.42866C102.187 8.36275 102.71 9.55838 102.71 11.9497V19.2729C102.71 21.1784 102.336 22.8972 101.626 23.9434V24.1302H109.846Z" fill="#2D0050"/>
<path opacity="0.95" d="M123.957 24.3229V20.9829C123.47 19.424 123.246 17.2891 123.246 14.7894C123.246 12.2896 123.47 10.1548 123.957 8.59598V5.25586C119.764 6.32602 116.819 9.91193 116.819 14.7894C116.819 19.6669 119.764 23.2529 123.957 24.3229Z" fill="#2D0050"/>
<path opacity="0.95" d="M129.405 24.3045C133.561 23.2123 136.472 19.6393 136.472 14.7892C136.472 9.93912 133.561 6.36613 129.405 5.27393V8.78821C129.847 10.3283 130.046 12.3908 130.046 14.7892C130.046 17.1876 129.847 19.2501 129.405 20.7903V24.3045Z" fill="#2D0050"/>
</g>
<path opacity="0.95" d="M86.8848 0C87.1009 1.68331 88.5049 2.94539 90.2561 2.94539C92.0072 2.94539 93.4111 1.68331 93.6272 0H86.8848Z" fill="#BC5284"/>
</g>
<defs>
<clipPath id="clip0">
<rect width="137" height="24.9091" fill="white"/>
</clipPath>
</defs>
</svg>
