<svg width="29" height="43" viewBox="0 0 29 43" fill="none" xmlns="http://www.w3.org/2000/svg">
<path d="M28.1006 37.3425C26.7518 35.9846 24.0541 36.2109 22.2556 36.2109C17.9843 36.2109 13.4882 36.6636 9.21687 36.6636C5.39516 36.4372 5.39516 42.5478 9.21687 42.5478C11.9145 42.5478 14.6122 42.3215 17.0851 42.3215C18.8835 42.3215 20.682 42.3215 22.4804 42.3215C22.7052 42.3215 22.7052 42.3215 22.93 42.3215C23.6045 42.7741 24.2789 43.0004 25.4029 43.0004C27.8758 42.3214 30.5735 39.832 28.1006 37.3425Z" fill="#6D3CC8"/>
<path d="M24.2787 16.5215C17.9842 19.2373 11.4648 21.953 5.17022 24.4425C1.57332 25.8004 4.27099 31.232 7.86789 29.8741L15.2865 26.932C15.7361 27.1583 16.4105 27.1583 17.3098 26.7057C20.457 25.1215 23.8291 23.5372 26.9764 21.953C30.3485 20.3688 27.8756 15.1636 24.2787 16.5215Z" fill="#6D3CC8"/>
<path d="M14.8372 0.679096L0.899201 12.9001C-2.02328 15.3896 2.02323 19.9159 4.72091 17.4265L18.6589 5.20541C21.5814 2.71594 17.7597 -1.81038 14.8372 0.679096Z" fill="#6D3CC8"/>
</svg>
