<svg width="95" height="96" viewBox="0 0 95 96" fill="none" xmlns="http://www.w3.org/2000/svg">
<circle cx="47.5" cy="47.8896" r="47.5" fill="#6D3CC8"/>
<g clip-path="url(#clip0)">
<path d="M31.75 34.3894C31.75 33.1468 32.7574 32.1394 34 32.1394H61C62.2427 32.1394 63.25 33.1468 63.25 34.3894V38.8894C63.25 40.132 62.2427 41.1394 61 41.1394H34C32.7574 41.1394 31.75 40.132 31.75 38.8894V34.3894Z" fill="white"/>
<path d="M31.75 47.8896C31.75 46.647 32.7574 45.6396 34 45.6396H47.5C48.7427 45.6396 49.75 46.647 49.75 47.8896V61.3897C49.75 62.6323 48.7427 63.6397 47.5 63.6397H34C32.7574 63.6397 31.75 62.6323 31.75 61.3897V47.8896Z" fill="white"/>
<path d="M56.5 45.6396C55.2573 45.6396 54.25 46.647 54.25 47.8896V61.3897C54.25 62.6323 55.2573 63.6397 56.5 63.6397H61C62.2427 63.6397 63.25 62.6323 63.25 61.3897V47.8896C63.25 46.647 62.2427 45.6396 61 45.6396H56.5Z" fill="white"/>
</g>
<defs>
<clipPath id="clip0">
<rect width="45" height="45" fill="white" transform="translate(25 25.3896)"/>
</clipPath>
</defs>
</svg>
