<svg width="24" height="24" viewBox="0 0 24 24" fill="none" xmlns="http://www.w3.org/2000/svg">
<circle cx="12" cy="12" r="12" fill="#6D3CC8"/>
<g clip-path="url(#clip0)">
<path d="M8.02148 8.58942C8.02148 8.27549 8.27598 8.021 8.58991 8.021H15.411C15.7249 8.021 15.9794 8.27549 15.9794 8.58942V9.72626C15.9794 10.0402 15.7249 10.2947 15.411 10.2947H8.58991C8.27598 10.2947 8.02148 10.0402 8.02148 9.72626V8.58942Z" fill="white"/>
<path d="M8.02148 12.0001C8.02148 11.6861 8.27598 11.4316 8.58991 11.4316H12.0004C12.3144 11.4316 12.5689 11.6861 12.5689 12.0001V15.4106C12.5689 15.7245 12.3144 15.979 12.0004 15.979H8.58991C8.27598 15.979 8.02148 15.7245 8.02148 15.4106V12.0001Z" fill="white"/>
<path d="M14.2735 11.4316C13.9596 11.4316 13.7051 11.6861 13.7051 12.0001V15.4106C13.7051 15.7245 13.9596 15.979 14.2735 15.979H15.4103C15.7243 15.979 15.9788 15.7245 15.9788 15.4106V12.0001C15.9788 11.6861 15.7243 11.4316 15.4103 11.4316H14.2735Z" fill="white"/>
</g>
<defs>
<clipPath id="clip0">
<rect width="11.3684" height="11.3684" fill="white" transform="translate(6.31592 6.31592)"/>
</clipPath>
</defs>
</svg>
