<svg width="73" height="73" viewBox="0 0 73 73" fill="none" xmlns="http://www.w3.org/2000/svg">
<circle cx="36.5" cy="36.5" r="36.5" fill="#6D3CC8"/>
<g clip-path="url(#clip0)">
<path d="M24.3975 26.1259C24.3975 25.1711 25.1715 24.397 26.1264 24.397H46.8738C47.8287 24.397 48.6027 25.1711 48.6027 26.1259V29.5838C48.6027 30.5387 47.8287 31.3128 46.8738 31.3128H26.1264C25.1715 31.3128 24.3975 30.5387 24.3975 29.5838V26.1259Z" fill="white"/>
<path d="M24.3975 36.4999C24.3975 35.5451 25.1715 34.771 26.1264 34.771H36.5001C37.455 34.771 38.229 35.5451 38.229 36.4999V46.8736C38.229 47.8285 37.455 48.6026 36.5001 48.6026H26.1264C25.1715 48.6026 24.3975 47.8285 24.3975 46.8736V36.4999Z" fill="white"/>
<path d="M43.4164 34.771C42.4615 34.771 41.6875 35.5451 41.6875 36.4999V46.8736C41.6875 47.8285 42.4615 48.6026 43.4164 48.6026H46.8743C47.8292 48.6026 48.6033 47.8285 48.6033 46.8736V36.4999C48.6033 35.5451 47.8292 34.771 46.8743 34.771H43.4164Z" fill="white"/>
</g>
<defs>
<clipPath id="clip0">
<rect width="34.5789" height="34.5789" fill="white" transform="translate(19.2109 19.2104)"/>
</clipPath>
</defs>
</svg>
