<svg width="54" height="54" viewBox="0 0 54 54" fill="none" xmlns="http://www.w3.org/2000/svg">
<circle cx="27" cy="27" r="27" fill="#6D3CC8"/>
<g clip-path="url(#clip0)">
<path d="M18.0488 19.3263C18.0488 18.62 18.6214 18.0474 19.3278 18.0474H34.6751C35.3815 18.0474 35.9541 18.62 35.9541 19.3263V21.8842C35.9541 22.5905 35.3815 23.1632 34.6751 23.1632H19.3278C18.6214 23.1632 18.0488 22.5905 18.0488 21.8842V19.3263Z" fill="white"/>
<path d="M18.0488 27.0001C18.0488 26.2938 18.6214 25.7212 19.3278 25.7212H27.0015C27.7078 25.7212 28.2804 26.2938 28.2804 27.0001V34.6738C28.2804 35.3802 27.7078 35.9528 27.0015 35.9528H19.3278C18.6214 35.9528 18.0488 35.3802 18.0488 34.6738V27.0001Z" fill="white"/>
<path d="M32.1161 25.7212C31.4097 25.7212 30.8372 26.2938 30.8372 27.0001V34.6738C30.8372 35.3802 31.4097 35.9528 32.1161 35.9528H34.674C35.3804 35.9528 35.9529 35.3802 35.9529 34.6738V27.0001C35.9529 26.2938 35.3804 25.7212 34.674 25.7212H32.1161Z" fill="white"/>
</g>
<defs>
<clipPath id="clip0">
<rect width="25.5789" height="25.5789" fill="white" transform="translate(14.2119 14.2109)"/>
</clipPath>
</defs>
</svg>
