<svg width="202" height="244" viewBox="0 0 202 244" fill="none" xmlns="http://www.w3.org/2000/svg">
<path d="M23.6257 223.878C31.0089 216.228 39.2719 210.28 48.4764 205.507C51.4871 207.459 54.4977 209.412 57.5702 210.839C60.5809 212.791 63.4921 211.004 63.8636 207.853C64.235 204.702 65.1392 201.613 64.9779 198.399C66.1053 198 67.2326 197.6 68.36 197.2C73.4021 195.665 71.6671 187.472 66.625 189.008C66.0923 188.945 66.0303 189.471 65.4976 189.408C65.4602 185.143 65.4227 180.879 65.3233 177.139C70.7125 177.242 76.0397 177.87 81.9616 178.036C87.3508 178.138 87.7467 170.197 82.3575 170.095C76.4356 169.929 70.5757 169.238 64.6538 169.073C63.0051 155.566 59.1018 142.858 53.5383 130.487C51.7789 127.084 47.3314 128.158 45.8945 131.183C40.6796 143.349 35.9975 155.577 31.848 167.869L10.3533 166.932C7.15697 166.556 4.4689 171.031 6.88489 173.446C13.377 177.939 19.2125 183.42 25.6426 188.438C22.2736 198.691 19.4372 209.007 17.1336 219.385C16.1675 222.999 20.5287 227.241 23.6257 223.878ZM29.3831 175.033C29.1974 176.609 28.479 178.122 27.6986 180.16C25.7534 178.333 23.8083 176.506 21.8631 174.679L29.3831 175.033ZM56.601 168.656C51.2118 168.553 45.8846 167.926 41.0282 167.886C44.1496 159.733 46.8002 150.993 50.4544 142.904C53.2548 151.221 55.4606 160.002 56.601 168.656ZM57.5442 192.73C54.7568 193.467 51.9074 194.729 49.5908 196.053C44.5731 192.799 39.6173 189.02 35.1942 185.303C36.0984 182.215 37.0026 179.126 37.9686 175.513C44.4233 175.741 50.8779 175.969 57.2706 176.723C57.7169 182.101 57.6306 187.415 57.5442 192.73ZM41.5136 200.426C36.8803 203.075 32.7179 206.312 28.5555 209.549C29.7073 204.36 31.3918 199.233 33.0763 194.106C35.5542 195.996 38.5029 198.474 41.5136 200.426Z" fill="#6D3CC8"/>
<path d="M50.441 110.951C74.2248 69.5555 110.522 36.558 153.981 16.1199C159.679 13.5965 163.545 22.0399 158.379 24.6261C116.11 44.1393 81.5966 75.7496 58.4694 116.157C55.1867 121.095 47.6911 115.952 50.441 110.951Z" fill="#6D3CC8"/>
<path d="M82.5034 118.459C108.345 91.6839 144.011 77.7825 181.673 79.0268C187.595 79.1923 187.014 88.709 181.154 88.0182C146.217 86.5627 113.276 100.253 88.7478 125.052C84.3996 129.865 78.2171 122.746 82.5034 118.459Z" fill="#6D3CC8"/>
<path d="M100.866 141.39C126.001 125.183 154.47 117.356 185.145 118.309C191.067 118.474 190.547 127.466 184.626 127.3C156.082 126.598 129.273 134.089 105.264 149.897C100.098 152.483 96.1704 144.565 100.866 141.39Z" fill="#6D3CC8"/>
</svg>
